<mxfile host="65bd71144e">
    <diagram id="gPPljSd1dN4ib_RSKtLd" name="Page-1">
        <mxGraphModel dx="981" dy="2924" grid="1" gridSize="10" guides="1" tooltips="1" connect="1" arrows="1" fold="1" page="1" pageScale="1" pageWidth="850" pageHeight="1100" math="0" shadow="0">
            <root>
                <mxCell id="0"/>
                <mxCell id="1" parent="0"/>
                <mxCell id="2" value="" style="rounded=0;whiteSpace=wrap;html=1;" parent="1" vertex="1">
                    <mxGeometry x="60" y="-960" width="790" height="710" as="geometry"/>
                </mxCell>
                <mxCell id="20" value="" style="whiteSpace=wrap;html=1;aspect=fixed;" vertex="1" parent="1">
                    <mxGeometry x="260" y="-820" width="550" height="550" as="geometry"/>
                </mxCell>
                <mxCell id="23" value="Filter by:&amp;nbsp;" style="html=1;shadow=0;dashed=0;shape=mxgraph.bootstrap.rrect;rSize=5;strokeColor=none;strokeWidth=1;fillColor=#6C767D;fontColor=#ffffff;whiteSpace=wrap;align=left;verticalAlign=middle;fontStyle=0;fontSize=14;spacingLeft=10;" vertex="1" parent="1">
                    <mxGeometry x="280" y="-740" width="160" height="40" as="geometry"/>
                </mxCell>
                <mxCell id="24" value="" style="shape=triangle;direction=south;fillColor=#ffffff;strokeColor=none;perimeter=none;" vertex="1" parent="23">
                    <mxGeometry x="1" y="0.5" width="10" height="5" relative="1" as="geometry">
                        <mxPoint x="-17" y="-2.5" as="offset"/>
                    </mxGeometry>
                </mxCell>
                <mxCell id="29" value="Type here" style="strokeWidth=1;shadow=0;dashed=0;align=center;html=1;shape=mxgraph.mockup.text.textBox;fontColor=#666666;align=left;fontSize=17;spacingLeft=4;spacingTop=-3;strokeColor=#666666;mainText=" vertex="1" parent="1">
                    <mxGeometry x="280" y="-790" width="440" height="30" as="geometry"/>
                </mxCell>
                <mxCell id="30" value="Search" style="rounded=1;fillColor=#0057D8;strokeColor=none;html=1;fontColor=#ffffff;align=center;verticalAlign=middle;fontStyle=0;fontSize=12;sketch=0;" vertex="1" parent="1">
                    <mxGeometry x="280" y="-673" width="160" height="33" as="geometry"/>
                </mxCell>
                <mxCell id="31" value="" style="strokeWidth=1;html=1;shadow=0;dashed=0;shape=mxgraph.android.rrect;rSize=0;strokeColor=#eeeeee;fillColor=#ffffff;gradientColor=none;" vertex="1" parent="1">
                    <mxGeometry x="70" y="-820" width="140" height="280" as="geometry"/>
                </mxCell>
                <mxCell id="32" value="Search VM" style="strokeColor=inherit;fillColor=inherit;gradientColor=inherit;strokeWidth=1;html=1;shadow=0;dashed=0;shape=mxgraph.android.rrect;rSize=0;align=left;spacingLeft=10;fontSize=8;fontColor=#333333;" vertex="1" parent="31">
                    <mxGeometry width="140" height="70" as="geometry"/>
                </mxCell>
                <mxCell id="33" value="Menu Item 2" style="strokeColor=inherit;fillColor=inherit;gradientColor=inherit;strokeWidth=1;html=1;shadow=0;dashed=0;shape=mxgraph.android.rrect;rSize=0;align=left;spacingLeft=10;fontSize=8;fontColor=#333333;" vertex="1" parent="31">
                    <mxGeometry y="70" width="140" height="70" as="geometry"/>
                </mxCell>
                <mxCell id="34" value="Menu Item 3" style="strokeColor=inherit;fillColor=inherit;gradientColor=inherit;strokeWidth=1;html=1;shadow=0;dashed=0;shape=mxgraph.android.rrect;rSize=0;align=left;spacingLeft=10;fontSize=8;fontColor=#333333;" vertex="1" parent="31">
                    <mxGeometry y="140" width="140" height="70" as="geometry"/>
                </mxCell>
                <mxCell id="35" value="Menu Item 4" style="strokeColor=inherit;fillColor=inherit;gradientColor=inherit;strokeWidth=1;html=1;shadow=0;dashed=0;shape=mxgraph.android.rrect;rSize=0;align=left;spacingLeft=10;fontSize=8;fontColor=#333333;" vertex="1" parent="31">
                    <mxGeometry y="210" width="140" height="70" as="geometry"/>
                </mxCell>
                <mxCell id="36" value="Title" style="text;strokeColor=none;fillColor=none;html=1;fontSize=24;fontStyle=1;verticalAlign=middle;align=center;" vertex="1" parent="1">
                    <mxGeometry x="60" y="-960" width="790" height="60" as="geometry"/>
                </mxCell>
                <mxCell id="38" value="" style="rounded=0;whiteSpace=wrap;html=1;" vertex="1" parent="1">
                    <mxGeometry x="280" y="-610" width="510" height="330" as="geometry"/>
                </mxCell>
                <mxCell id="39" value="" style="shape=flexArrow;endArrow=classic;html=1;entryX=-0.002;entryY=0.07;entryDx=0;entryDy=0;entryPerimeter=0;" edge="1" parent="1" target="20">
                    <mxGeometry width="50" height="50" relative="1" as="geometry">
                        <mxPoint x="210" y="-780" as="sourcePoint"/>
                        <mxPoint x="260" y="-830" as="targetPoint"/>
                    </mxGeometry>
                </mxCell>
            </root>
        </mxGraphModel>
    </diagram>
</mxfile>